<svg width="110" height="36" fill="none" xmlns="http://www.w3.org/2000/svg"><path d="m49.992 26-6.456-7.464V26H40.8V9.32h2.736v7.608l6.48-7.608h3.432L46.2 17.672 53.568 26h-3.576zm8.732-11.304c.4-.672.928-1.192 1.584-1.56.672-.384 1.464-.576 2.376-.576v2.832h-.697c-1.072 0-1.888.272-2.448.816-.544.544-.816 1.488-.816 2.832V26h-2.736V12.776h2.736v1.92zm18.594 4.368c0 .496-.032.944-.096 1.344H67.118c.08 1.056.472 1.904 1.176 2.544.704.64 1.568.96 2.592.96 1.472 0 2.512-.616 3.12-1.848h2.952c-.4 1.216-1.128 2.216-2.184 3-1.04.768-2.336 1.152-3.888 1.152-1.264 0-2.4-.28-3.408-.84a6.278 6.278 0 0 1-2.352-2.4c-.56-1.04-.84-2.24-.84-3.6 0-1.36.272-2.552.816-3.576.56-1.04 1.336-1.84 2.328-2.4 1.008-.56 2.16-.84 3.456-.84 1.248 0 2.36.272 3.336.816a5.746 5.746 0 0 1 2.28 2.304c.544.976.816 2.104.816 3.384zm-2.856-.864c-.016-1.008-.376-1.816-1.08-2.424-.704-.608-1.576-.912-2.616-.912-.944 0-1.752.304-2.424.912-.672.592-1.072 1.4-1.2 2.424h7.32zm17.669.864c0 .496-.032.944-.096 1.344H81.93c.08 1.056.472 1.904 1.176 2.544.704.64 1.568.96 2.592.96 1.472 0 2.512-.616 3.12-1.848h2.952c-.4 1.216-1.128 2.216-2.184 3-1.04.768-2.336 1.152-3.888 1.152-1.264 0-2.4-.28-3.408-.84a6.278 6.278 0 0 1-2.352-2.4c-.56-1.04-.84-2.24-.84-3.6 0-1.36.272-2.552.816-3.576.56-1.04 1.336-1.84 2.328-2.4 1.008-.56 2.16-.84 3.456-.84 1.248 0 2.36.272 3.336.816a5.746 5.746 0 0 1 2.28 2.304c.544.976.816 2.104.816 3.384zm-2.856-.864c-.016-1.008-.376-1.816-1.08-2.424-.704-.608-1.576-.912-2.616-.912-.944 0-1.752.304-2.424.912-.672.592-1.072 1.4-1.2 2.424h7.32zm4.636 1.128c0-1.328.272-2.504.816-3.528.56-1.024 1.312-1.816 2.256-2.376.96-.576 2.024-.864 3.192-.864.864 0 1.712.192 2.544.576.848.368 1.52.864 2.016 1.488V8.24h2.76V26h-2.76v-1.992c-.448.64-1.072 1.168-1.872 1.584-.784.416-1.688.624-2.712.624a6.042 6.042 0 0 1-3.168-.864c-.944-.592-1.696-1.408-2.256-2.448-.544-1.056-.816-2.248-.816-3.576zm10.824.048c0-.912-.192-1.704-.576-2.376-.368-.672-.856-1.184-1.464-1.536a3.862 3.862 0 0 0-1.968-.528 3.86 3.86 0 0 0-1.968.528c-.608.336-1.104.84-1.488 1.512-.368.656-.552 1.44-.552 2.352 0 .912.184 1.712.552 2.4.384.688.88 1.216 1.488 1.584.624.352 1.28.528 1.968.528.704 0 1.36-.176 1.968-.528.608-.352 1.096-.864 1.464-1.536.384-.688.576-1.488.576-2.4z" fill="#232D22"/><rect y="3" width="30" height="30" rx="6" fill="#13AA52"/><path d="M9.71 24.678a1 1 0 0 1-1-1V12.226a1 1 0 0 1 1-1h1.051a1 1 0 0 1 1 1v11.452a1 1 0 0 1-1 1H9.71zm3.04-6.222a1 1 0 0 1-.011-.665l1.975-5.883a1 1 0 0 1 .948-.682h.903a1 1 0 0 1 .948 1.315l-1.746 5.254a1 1 0 0 0 .009.657l1.774 4.885a1 1 0 0 1-.94 1.341h-.863a1 1 0 0 1-.938-.653l-2.06-5.57zM19.011 23.333c0-.577.282-1.006.845-1.288a1.81 1.81 0 0 1 .779-.173c.649 0 1.125.25 1.428.75.13.218.195.455.195.71 0 .59-.289 1.013-.866 1.27a1.761 1.761 0 0 1-.757.172c-.664 0-1.14-.256-1.429-.768a1.298 1.298 0 0 1-.195-.673z" fill="#fff"/></svg>